<svg xmlns="http://www.w3.org/2000/svg" width="26" height="260"><defs><clipPath><path d="M.06 162.536h199.94v-162.476h-199.94v162.476z"/></clipPath><clipPath><path d="M0 0h200v163h-200v-163z"/></clipPath><clipPath id="a"><path d="M0 500h1024v-500h-1024v500z"/></clipPath><clipPath><path d="M-28.999 153.8c-.101-.001-.203.027-.292.075l-5.4 2.975c-.093.051-.171.125-.225.217-.054.092-.084.202-.084.308v6.05c0 .213.121.422.308.525l5.4 2.975c.088.048.191.075.292.075.1 0 .204-.027.292-.075l5.4-2.975c.187-.103.308-.311.308-.525v-6.05c0-.107-.029-.217-.084-.308-.054-.092-.131-.165-.225-.217l-5.4-2.975c-.088-.048-.192-.075-.292-.075z" style="text-indent:0;text-align:start;line-height:normal;text-transform:none;block-progression:tb;-inkscape-font-specification:Sans" color="#000" overflow="visible" enable-background="accumulate" font-family="Sans"/></clipPath></defs><g><path d="M14.344 137l2.125 2.125-4.25 4.25 1.406 1.406 4.25-4.25 2.125 2.125v-5.656zm-6.344 1l-1 1v9l1 1h10l1-1v-4l-1-1-1 1v3h-8v-7h4l1-1-1-1z" color="#000" overflow="visible" filter="url(#filter6591-2)" enable-background="accumulate"/><path d="M12.5 9c-.277 0-.5.223-.5.5v2.5h-2.5c-.277 0-.5.223-.5.5v1c0 .277.223.5.5.5h2.5v2.5c0 .277.223.5.5.5h1c.277 0 .5-.223.5-.5v-2.5h2.5c.277 0 .5-.223.5-.5v-1c0-.277-.223-.5-.5-.5h-2.5v-2.5c0-.277-.223-.5-.5-.5z" color="#000" overflow="visible" enable-background="accumulate"/><path d="M9.5 38c-.277 0-.5.223-.5.5v1c0 .277.223.5.5.5h7c.277 0 .5-.223.5-.5v-1c0-.277-.223-.5-.5-.5z" color="#000" overflow="visible" enable-background="accumulate"/><path d="M20 216.126c-.515.225-1.069.377-1.65.445.593-.35 1.048-.904 1.263-1.564-.555.324-1.17.559-1.824.686-.524-.55-1.27-.893-2.096-.893-1.586 0-2.872 1.266-2.872 2.828 0 .222.025.438.075.644-2.387-.118-4.503-1.244-5.92-2.955-.247.418-.389.903-.389 1.422 0 .981.507 1.847 1.278 2.354-.471-.015-.914-.142-1.301-.354v.035c0 1.37.99 2.513 2.304 2.773-.241.065-.495.099-.757.099-.185 0-.365-.018-.54-.051.365 1.123 1.426 1.941 2.683 1.964-.983.758-2.221 1.211-3.567 1.211-.232 0-.46-.013-.685-.04 1.271.802 2.781 1.271 4.403 1.271 5.283 0 8.172-4.309 8.172-8.046l-.01-.366c.561-.399 1.048-.897 1.433-1.464" color="#000" overflow="visible" enable-background="accumulate"/><path d="M6.702 187.177l-.991.991v11.896l.991.991h6.759v-4.957h-1.809v-1.983h1.809v-2.074c0-1.793 1.095-2.769 2.694-2.769.766 0 1.087.057 1.279.082v1.787l-.772.001c-.87 0-1.038.413-1.038 1.02v1.954h2.074l-.27 1.983h-1.804v4.957h2.974l.991-.991v-11.896l-.991-.991z" clip-path="url(#a)"/><path d="M16.088 239.411c-3.788 0-6.86 3.071-6.86 6.86 0 2.809 1.689 5.222 4.106 6.283-.019-.479-.003-1.054.119-1.575l.883-3.738s-.219-.438-.219-1.085c0-1.017.589-1.776 1.323-1.776.624 0 .925.469.925 1.03 0 .627-.4 1.565-.606 2.434-.172.728.365 1.321 1.083 1.321 1.3 0 2.175-1.669 2.175-3.647 0-1.503-1.013-2.629-2.854-2.629-2.081 0-3.377 1.552-3.377 3.285 0 .598.176 1.019.452 1.345.127.15.145.21.099.382l-.14.551c-.046.174-.186.236-.343.172-.958-.391-1.405-1.441-1.405-2.621 0-1.949 1.643-4.285 4.903-4.285 2.619 0 4.343 1.895 4.343 3.929 0 2.691-1.496 4.701-3.701 4.701-.741 0-1.437-.4-1.676-.855 0 0-.398 1.581-.483 1.886-.145.529-.43 1.057-.69 1.47.617.182 1.269.281 1.944.281 3.788 0 6.859-3.071 6.859-6.86 0-3.788-3.071-6.86-6.859-6.86"/><path d="M11.5 163c-2.485 0-4.5 2.015-4.5 4.5s2.015 4.5 4.5 4.5c.854 0 1.663-.243 2.344-.656l3.656 3.656 1.5-1.5-3.656-3.656c.413-.68.656-1.49.656-2.344 0-2.485-2.015-4.5-4.5-4.5zm0 1.5c1.657 0 3 1.343 3 3s-1.343 3-3 3-3-1.343-3-3 1.343-3 3-3z" color="#000" overflow="visible" enable-background="accumulate"/><path d="M9.5 60l-1.5 1.5 3.5 3.5-3.5 3.5 1.5 1.5 3.5-3.5 3.5 3.5 1.5-1.5-3.5-3.5 3.5-3.5-1.5-1.5-3.5 3.5z" color="#000" overflow="visible" enable-background="accumulate"/><path style="text-indent:0;text-align:start;line-height:normal;text-transform:none;block-progression:tb;-inkscape-font-specification:Sans" d="M13 110.969c-.101-.001-.193.015-.281.063l-6.719 1.969v1l6.719 1.938c.088.048.181.063.281.063.1 0 .193-.015.281-.063l6.719-1.938v-1l-6.719-1.969c-.088-.048-.182-.063-.281-.063zm-7 7.031l6.719 1.938c.088.048.181.063.281.063.1 0 .193-.015.281-.063l6.719-1.938v-2l-6.719 1.938c-.088.048-.181.063-.281.063-.101 0-.193-.015-.281-.063l-6.719-1.938zm0 4l6.719 1.938c.088.048.181.063.281.063.1 0 .193-.015.281-.063l6.719-1.938v-2l-6.719 1.938c-.088.048-.181.063-.281.063-.101 0-.193-.015-.281-.063l-6.719-1.938z" color="#000" overflow="visible" enable-background="accumulate" font-family="Sans"/></g><path d="M13 84c-3.866 0-7 3.134-7 7s3.134 7 7 7 7-3.134 7-7-3.134-7-7-7zm-.5 3h1c.277 0 .5.223.5.5v1c0 .277-.223.5-.5.5h-1c-.277 0-.5-.223-.5-.5v-1c0-.277.223-.5.5-.5zm0 3h1c.277 0 .5.223.5.5v4c0 .277-.223.5-.5.5h-1c-.277 0-.5-.223-.5-.5v-4c0-.277.223-.5.5-.5z" color="#000" overflow="visible" enable-background="accumulate"/></svg>